<?xml version="1.0" encoding="UTF-8" standalone="no"?><!DOCTYPE svg PUBLIC "-//W3C//DTD SVG 1.1//EN" "http://www.w3.org/Graphics/SVG/1.1/DTD/svg11.dtd"><svg width="100%" height="100%" viewBox="0 0 56 56" version="1.1" xmlns="http://www.w3.org/2000/svg" xmlns:xlink="http://www.w3.org/1999/xlink" xml:space="preserve" xmlns:serif="http://www.serif.com/" style="fill-rule:evenodd;clip-rule:evenodd;stroke-linecap:round;stroke-linejoin:round;stroke-miterlimit:1.5;"><path d="M53.791,27.646c0,-14.431 -11.715,-26.146 -26.145,-26.146c-14.431,0 -26.146,11.715 -26.146,26.146c0,14.43 11.715,26.145 26.146,26.145c14.43,0 26.145,-11.715 26.145,-26.145Z" style="fill:none;stroke:#e64444;stroke-width:3px;"/><path d="M23.589,17.398c0,0 -1.609,-1.367 -3.107,1.129c-1.694,2.825 -1.74,10.147 -1.694,14.124c0.141,12.287 1.977,14.265 4.66,14.265c2.684,0 4.476,-4.58 4.498,-19.874c0.013,-8.922 -0.037,-13.697 -0.081,-16.126c-0.029,-0.705 0.245,-1.389 0.753,-1.879c0.508,-0.489 1.201,-0.738 1.905,-0.684c0.396,0.058 0.813,0.112 1.228,0.21c4.735,1.126 4.778,8.054 4.761,10.113c-0.031,3.758 -1.756,6.412 -3,7.839c-0.713,0.808 -0.848,1.975 -0.336,2.924c1.249,2.32 3.336,6.192 3.336,6.192" style="fill:none;stroke:#e64444;stroke-width:3px;"/></svg>